<?xml version="1.0" encoding="UTF-8" standalone="no"?>
<!DOCTYPE svg PUBLIC "-//W3C//DTD SVG 1.1//EN"
 "http://www.w3.org/Graphics/SVG/1.1/DTD/svg11.dtd">
<!-- Generated by graphviz version 2.28.0 (20110509.1545)
 -->
<!-- Title: G Pages: 1 -->
<svg width="177pt" height="188pt"
 viewBox="0.00 0.00 177.00 188.00" xmlns="http://www.w3.org/2000/svg" xmlns:xlink="http://www.w3.org/1999/xlink">
<g id="graph1" class="graph" transform="scale(1 1) rotate(0) translate(4 184)">
<title>G</title>
<polygon fill="white" stroke="white" points="-4,5 -4,-184 174,-184 174,5 -4,5"/>
<!-- Site1 -->
<g id="node1" class="node"><title>Site1</title>
<ellipse fill="none" stroke="black" cx="70" cy="-162" rx="30.333" ry="18"/>
<text text-anchor="middle" x="70" y="-157.8" font-family="Times,serif" font-size="14.00">Site1</text>
</g>
<!-- Site2 -->
<g id="node3" class="node"><title>Site2</title>
<ellipse fill="none" stroke="black" cx="30" cy="-90" rx="30.333" ry="18"/>
<text text-anchor="middle" x="30" y="-85.8" font-family="Times,serif" font-size="14.00">Site2</text>
</g>
<!-- Site1&#45;&gt;Site2 -->
<g id="edge2" class="edge"><title>Site1&#45;&gt;Site2</title>
<path fill="none" stroke="black" d="M55.6422,-145.811C49.8722,-137.488 43.5478,-126.935 38.4763,-117.317"/>
<polygon fill="black" stroke="black" points="41.4868,-115.511 33.8893,-108.127 35.2236,-118.637 41.4868,-115.511"/>
</g>
<!-- Site3 -->
<g id="node7" class="node"><title>Site3</title>
<ellipse fill="none" stroke="black" cx="110" cy="-90" rx="30.333" ry="18"/>
<text text-anchor="middle" x="110" y="-85.8" font-family="Times,serif" font-size="14.00">Site3</text>
</g>
<!-- Site1&#45;&gt;Site3 -->
<g id="edge10" class="edge"><title>Site1&#45;&gt;Site3</title>
<path fill="none" stroke="black" d="M79.2773,-144.765C84.0547,-136.404 89.9909,-126.016 95.368,-116.606"/>
<polygon fill="black" stroke="black" points="98.5726,-118.052 100.495,-107.633 92.4949,-114.579 98.5726,-118.052"/>
</g>
<!-- Site2&#45;&gt;Site1 -->
<g id="edge6" class="edge"><title>Site2&#45;&gt;Site1</title>
<path fill="none" stroke="black" d="M44.4738,-106.356C50.2525,-114.712 56.5738,-125.276 61.6291,-134.883"/>
<polygon fill="black" stroke="black" points="58.6053,-136.663 66.1954,-144.055 64.8716,-133.543 58.6053,-136.663"/>
</g>
<!-- Site4 -->
<g id="node4" class="node"><title>Site4</title>
<ellipse fill="none" stroke="black" cx="139" cy="-18" rx="30.333" ry="18"/>
<text text-anchor="middle" x="139" y="-13.8" font-family="Times,serif" font-size="14.00">Site4</text>
</g>
<!-- Site4&#45;&gt;Site1 -->
<g id="edge4" class="edge"><title>Site4&#45;&gt;Site1</title>
<path fill="none" stroke="black" d="M146.342,-35.8213C153.335,-54.5648 161.146,-85.2256 149,-108 139.492,-125.829 121.028,-138.722 104.341,-147.324"/>
<polygon fill="black" stroke="black" points="102.813,-144.175 95.3211,-151.666 105.85,-150.483 102.813,-144.175"/>
</g>
<!-- Site3&#45;&gt;Site4 -->
<g id="edge8" class="edge"><title>Site3&#45;&gt;Site4</title>
<path fill="none" stroke="black" d="M116.873,-72.411C120.218,-64.3352 124.321,-54.4312 128.082,-45.3547"/>
<polygon fill="black" stroke="black" points="131.381,-46.5344 131.975,-35.9562 124.914,-43.8552 131.381,-46.5344"/>
</g>
</g>
</svg>
